<?xml version="1.0" encoding="utf-8"?>
<!-- Generator: Adobe Illustrator 26.3.1, SVG Export Plug-In . SVG Version: 6.00 Build 0)  -->
<svg version="1.1" id="Layer_1" xmlns="http://www.w3.org/2000/svg" xmlns:xlink="http://www.w3.org/1999/xlink" x="0px" y="0px"
	 viewBox="0 0 897.6 470.2" style="enable-background:new 0 0 897.6 470.2;" xml:space="preserve">
<style type="text/css">
	.st0{fill:none;stroke:#DEE3FC;stroke-width:0.7896;stroke-miterlimit:10;}
	.st1{fill:#DEE3FC;}
	.st2{fill:#A4AFFF;}
	.st3{fill:#FFFFFF;}
	.st4{fill:#3B47BC;}
	.st5{fill:none;stroke:#698BD1;stroke-linecap:round;stroke-linejoin:round;stroke-miterlimit:10;stroke-dasharray:2.837;}
	.st6{fill:#4B5A9B;}
	.st7{fill:#283B8A;}
	.st8{fill:#B2C1F9;}
	.st9{fill:#3052CE;}
	.st10{fill:none;stroke:#495AD6;stroke-width:0.8956;stroke-miterlimit:10;}
	.st11{fill:none;stroke:#495AD6;stroke-width:1.6716;stroke-linecap:round;stroke-linejoin:round;stroke-miterlimit:10;}
	.st12{fill:#F0F4FF;}
	.st13{fill:#3D49BD;}
	.st14{fill:#495AD6;}
	.st15{fill:#281616;}
	.st16{fill:#002C54;}
	.st17{fill:#052635;}
	.st18{fill:#E5918F;}
	.st19{fill:#C7E5F2;}
	.st20{fill:#CC6362;}
	.st21{fill:none;stroke:#FFFFFF;stroke-width:0.501;stroke-miterlimit:10;}
	.st22{opacity:0.5;}
	.st23{fill:#375F84;}
	.st24{fill:#467CDB;}
	.st25{fill:#E49191;}
	.st26{fill:#5996EF;}
	.st27{fill:none;stroke:#FFFFFF;stroke-width:0.8956;stroke-miterlimit:10;}
	.st28{fill:#FFFFFF;stroke:#495AD6;stroke-width:0.8956;stroke-miterlimit:10;}
	.st29{fill:none;stroke:#495AD6;stroke-width:1.6716;stroke-miterlimit:10;}
	.st30{fill:none;stroke:#495AD6;stroke-width:1.6716;stroke-linecap:round;stroke-miterlimit:10;}
	.st31{fill:#193091;}
	.st32{fill:none;stroke:#FFFFFF;stroke-width:0.8956;stroke-linecap:round;stroke-miterlimit:10;}
	.st33{fill:#6589D1;}
	.st34{fill:#3B5FB7;}
	.st35{fill:#283B8A;stroke:#DEE3FC;stroke-miterlimit:10;}
	.st36{fill:#B4C1EF;}
</style>
<g>
	<g>
		<g>
			<path class="st0" d="M323.1,116.3v-12.8c0-1.3-1-2.3-2.3-2.3h-3.3c-1,0-1.8-0.7-2-1.6c-1.1-5-3.1-9.6-5.7-13.8
				c-0.5-0.8-0.4-1.9,0.3-2.6l2.3-2.3c0.9-0.9,0.9-2.3,0-3.2l-9-9c-0.9-0.9-2.3-0.9-3.2,0l-2.3,2.3c-0.7,0.7-1.8,0.8-2.6,0.3
				c-4.2-2.6-8.9-4.6-13.8-5.7c-0.9-0.2-1.6-1.1-1.6-2v-3.3c0-1.3-1-2.3-2.3-2.3h-12.8c-1.3,0-2.3,1-2.3,2.3v3.3c0,1-0.7,1.8-1.6,2
				c-5,1.1-9.6,3.1-13.8,5.7c-0.8,0.5-1.9,0.4-2.6-0.3l-2.3-2.3c-0.9-0.9-2.3-0.9-3.2,0l-9,9c-0.9,0.9-0.9,2.3,0,3.2l2.3,2.3
				c0.7,0.7,0.8,1.8,0.3,2.6c-2.6,4.2-4.6,8.9-5.7,13.8c-0.2,0.9-1.1,1.6-2,1.6h-3.3c-1.3,0-2.3,1-2.3,2.3v12.8c0,1.3,1,2.3,2.3,2.3
				h3.3c1,0,1.8,0.7,2,1.6c1.1,5,3.1,9.6,5.7,13.8c0.5,0.8,0.4,1.9-0.3,2.6l-2.3,2.3c-0.9,0.9-0.9,2.3,0,3.2l9,9
				c0.9,0.9,2.3,0.9,3.2,0l2.3-2.3c0.7-0.7,1.8-0.8,2.6-0.3c4.2,2.6,8.9,4.6,13.8,5.7c0.9,0.2,1.6,1.1,1.6,2v3.3
				c0,1.3,1,2.3,2.3,2.3h12.8c1.3,0,2.3-1,2.3-2.3v-3.3c0-1,0.7-1.8,1.6-2c5-1.1,9.6-3.1,13.8-5.7c0.8-0.5,1.9-0.4,2.6,0.3l2.3,2.3
				c0.9,0.9,2.3,0.9,3.2,0l9-9c0.9-0.9,0.9-2.3,0-3.2l-2.3-2.3c-0.7-0.7-0.8-1.8-0.3-2.6c2.6-4.2,4.6-8.9,5.7-13.8
				c0.2-0.9,1.1-1.6,2-1.6h3.3C322.1,118.5,323.1,117.5,323.1,116.3z M271.2,145.9c-19.9,0-36-16.2-36-36.1c0-19.9,16.1-36,36-36
				c19.9,0,36,16.2,36,36C307.2,129.8,291.1,145.9,271.2,145.9z"/>
			<path class="st1" d="M381.9,159.5v-8.7c0-0.9-0.7-1.5-1.5-1.5h-2.2c-0.7,0-1.2-0.4-1.4-1.1c-0.8-3.4-2.1-6.6-3.9-9.4
				c-0.4-0.6-0.3-1.3,0.2-1.8l1.6-1.6c0.6-0.6,0.6-1.6,0-2.2l-6.2-6.2c-0.6-0.6-1.6-0.6-2.2,0l-1.6,1.6c-0.5,0.5-1.2,0.5-1.8,0.2
				c-2.9-1.8-6-3.1-9.4-3.9c-0.6-0.1-1.1-0.7-1.1-1.4v-2.2c0-0.9-0.7-1.5-1.5-1.5h-8.7c-0.9,0-1.5,0.7-1.5,1.5v2.2
				c0,0.7-0.4,1.2-1.1,1.4c-3.4,0.8-6.6,2.1-9.4,3.9c-0.6,0.4-1.3,0.3-1.8-0.2l-1.6-1.6c-0.6-0.6-1.6-0.6-2.2,0l-6.2,6.2
				c-0.6,0.6-0.6,1.6,0,2.2l1.6,1.6c0.5,0.5,0.5,1.2,0.2,1.8c-1.8,2.9-3.1,6-3.9,9.4c-0.1,0.6-0.7,1.1-1.4,1.1h-2.2
				c-0.9,0-1.5,0.7-1.5,1.5v8.7c0,0.9,0.7,1.5,1.5,1.5h2.2c0.7,0,1.2,0.4,1.4,1.1c0.8,3.4,2.1,6.6,3.9,9.4c0.4,0.6,0.3,1.3-0.2,1.8
				l-1.6,1.6c-0.6,0.6-0.6,1.6,0,2.2l6.2,6.2c0.6,0.6,1.6,0.6,2.2,0l1.6-1.6c0.5-0.5,1.2-0.5,1.8-0.2c2.9,1.8,6,3.1,9.4,3.9
				c0.6,0.1,1.1,0.7,1.1,1.4v2.2c0,0.9,0.7,1.5,1.5,1.5h8.7c0.9,0,1.5-0.7,1.5-1.5v-2.2c0-0.7,0.4-1.2,1.1-1.4
				c3.4-0.8,6.6-2.1,9.4-3.9c0.6-0.4,1.3-0.3,1.8,0.2l1.6,1.6c0.6,0.6,1.6,0.6,2.2,0l6.2-6.2c0.6-0.6,0.6-1.6,0-2.2l-1.6-1.6
				c-0.5-0.5-0.5-1.2-0.2-1.8c1.8-2.9,3.1-6,3.9-9.4c0.1-0.6,0.7-1.1,1.4-1.1h2.2C381.2,161.1,381.9,160.4,381.9,159.5z
				 M346.5,178.4c-12.8,0-23.2-10.4-23.2-23.2c0-12.8,10.4-23.2,23.2-23.2c12.8,0,23.2,10.4,23.2,23.2
				C369.7,168,359.3,178.4,346.5,178.4z"/>
		</g>
		<g>
			<circle class="st2" cx="217.8" cy="386" r="4.2"/>
			<circle class="st2" cx="783.7" cy="270.6" r="4.2"/>
			<circle class="st2" cx="775.3" cy="119.8" r="4.2"/>
			<circle class="st2" cx="623.4" cy="68.5" r="2.6"/>
			<path class="st2" d="M234.4,33.2c0,1.5-1.2,2.6-2.6,2.6c-1.5,0-2.6-1.2-2.6-2.6c0-1.5,1.2-2.6,2.6-2.6
				C233.2,30.6,234.4,31.8,234.4,33.2z"/>
			<path class="st2" d="M293,196.4c0,1.5-1.2,2.6-2.6,2.6c-1.5,0-2.6-1.2-2.6-2.6c0-1.5,1.2-2.6,2.6-2.6
				C291.8,193.7,293,194.9,293,196.4z"/>
			<path class="st2" d="M195.8,390.3c0,1.5-1.2,2.6-2.6,2.6c-1.5,0-2.6-1.2-2.6-2.6c0-1.5,1.2-2.6,2.6-2.6
				C194.6,387.6,195.8,388.8,195.8,390.3z"/>
			<circle class="st2" cx="721.8" cy="388.5" r="4.2"/>
			<circle class="st2" cx="811.6" cy="388.5" r="4.2"/>
			<circle class="st2" cx="307.2" cy="21.7" r="4.2"/>
			<path class="st2" d="M598.6,213.9c0,3.1-2.5,5.7-5.7,5.7s-5.7-2.5-5.7-5.7c0-3.1,2.5-5.7,5.7-5.7S598.6,210.8,598.6,213.9z"/>
			<path class="st2" d="M181.8,144c0,3.1-2.5,5.7-5.7,5.7c-3.1,0-5.7-2.5-5.7-5.7s2.5-5.7,5.7-5.7
				C179.3,138.3,181.8,140.9,181.8,144z"/>
		</g>
		<g>
			<path class="st3" d="M166,59.6h-7.4c-0.4,0-0.7-0.3-0.7-0.7v-7.4c0-0.4,0.3-0.7,0.7-0.7h7.4c0.4,0,0.7,0.3,0.7,0.7V59
				C166.7,59.3,166.4,59.6,166,59.6z"/>
			<path class="st3" d="M177.8,59.6h-7.4c-0.4,0-0.7-0.3-0.7-0.7v-7.4c0-0.4,0.3-0.7,0.7-0.7h7.4c0.4,0,0.7,0.3,0.7,0.7V59
				C178.4,59.3,178.1,59.6,177.8,59.6z"/>
			<path class="st3" d="M189.5,59.6h-7.4c-0.4,0-0.7-0.3-0.7-0.7v-7.4c0-0.4,0.3-0.7,0.7-0.7h7.4c0.4,0,0.7,0.3,0.7,0.7V59
				C190.2,59.3,189.9,59.6,189.5,59.6z"/>
		</g>
		<g>
			<g>
				<path class="st1" d="M763.1,367.4h-7.4c-0.4,0-0.7-0.3-0.7-0.7v-7.4c0-0.4,0.3-0.7,0.7-0.7h7.4c0.4,0,0.7,0.3,0.7,0.7v7.4
					C763.7,367.1,763.4,367.4,763.1,367.4z"/>
				<path class="st1" d="M774.8,367.4h-7.4c-0.4,0-0.7-0.3-0.7-0.7v-7.4c0-0.4,0.3-0.7,0.7-0.7h7.4c0.4,0,0.7,0.3,0.7,0.7v7.4
					C775.4,367.1,775.1,367.4,774.8,367.4z"/>
				<path class="st1" d="M786.5,367.4h-7.4c-0.4,0-0.7-0.3-0.7-0.7v-7.4c0-0.4,0.3-0.7,0.7-0.7h7.4c0.4,0,0.7,0.3,0.7,0.7v7.4
					C787.2,367.1,786.9,367.4,786.5,367.4z"/>
			</g>
		</g>
		<g>
			<g>
				<path class="st1" d="M221.1,362.6h-7.4c-0.4,0-0.7-0.3-0.7-0.7v-7.4c0-0.4,0.3-0.7,0.7-0.7h7.4c0.4,0,0.7,0.3,0.7,0.7v7.4
					C221.7,362.3,221.4,362.6,221.1,362.6z"/>
				<path class="st1" d="M232.8,362.6h-7.4c-0.4,0-0.7-0.3-0.7-0.7v-7.4c0-0.4,0.3-0.7,0.7-0.7h7.4c0.4,0,0.7,0.3,0.7,0.7v7.4
					C233.5,362.3,233.2,362.6,232.8,362.6z"/>
				<path class="st1" d="M244.5,362.6h-7.4c-0.4,0-0.7-0.3-0.7-0.7v-7.4c0-0.4,0.3-0.7,0.7-0.7h7.4c0.4,0,0.7,0.3,0.7,0.7v7.4
					C245.2,362.3,244.9,362.6,244.5,362.6z"/>
			</g>
		</g>
	</g>
	<g>
		<g>
			<path class="st4" d="M543.9,438H364.6c-11.8,0-21.3-9.6-21.3-21.3V30.3c0-11.8,9.6-21.3,21.3-21.3h179.4
				c11.8,0,21.3,9.6,21.3,21.3v386.3C565.3,428.4,555.7,438,543.9,438z"/>
			<path class="st3" d="M542.4,431.9H366.1c-10.3,0-18.7-8.4-18.7-18.7V31.5c0-10.3,8.4-18.7,18.7-18.7h176.3
				c10.3,0,18.7,8.4,18.7,18.7v381.7C561.1,423.5,552.7,431.9,542.4,431.9z"/>
			<path class="st1" d="M551.8,35.4v372c0,8.7-7.1,15.8-15.8,15.8H372.5c-8.7,0-15.8-7.1-15.8-15.8v-372c0-8.7,7.1-15.8,15.8-15.8
				h27.3c1.5,0,2.9,0.9,3.6,2.2l2.9,5.8c1.3,2.7,4,4.3,7,4.3h82c3,0,5.7-1.7,7-4.3l2.9-5.8c0.7-1.4,2.1-2.2,3.6-2.2H536
				C544.7,19.6,551.8,26.6,551.8,35.4z"/>
			<path class="st1" d="M488.7,25.1h-66c-1.5,0-2.8-1.2-2.8-2.8l0,0c0-1.5,1.2-2.8,2.8-2.8h66c1.5,0,2.8,1.2,2.8,2.8l0,0
				C491.4,23.9,490.2,25.1,488.7,25.1z"/>
		</g>
		<path class="st5" d="M527.9,410.3H376.8c-4.6,0-8.4-3.8-8.4-8.4v-56c0-4.6,3.8-8.4,8.4-8.4h151.1c4.6,0,8.4,3.8,8.4,8.4v56
			C536.3,406.5,532.5,410.3,527.9,410.3z"/>
		<path class="st5" d="M519.9,231.6H444c-3.3,0-6-2.7-6-6v-39c0-3.3,2.7-6,6-6h75.9c3.3,0,6,2.7,6,6v39
			C525.9,228.9,523.2,231.6,519.9,231.6z"/>
		<g>
			<path class="st6" d="M535.8,325.4H381.7c-4,0-7.2-3.2-7.2-7.2v-67.1c0-4,3.2-7.2,7.2-7.2h154.1c4,0,7.2,3.2,7.2,7.2v67.1
				C543,322.1,539.8,325.4,535.8,325.4z"/>
			<path class="st7" d="M536.3,246.3v63.5c0,5-4,9-9,9H377.4c-5,0-9-4-9-9v-63.5c0-5,4-9,9-9h149.9
				C532.3,237.3,536.3,241.3,536.3,246.3z"/>
			<path class="st3" d="M427.6,312.1H381c-2.7,0-4.9-2.2-4.9-4.9v-46.6c0-2.7,2.2-4.9,4.9-4.9h46.6c2.7,0,4.9,2.2,4.9,4.9v46.6
				C432.5,310,430.3,312.1,427.6,312.1z"/>
			<g>
				<path class="st8" d="M478.7,263h-38.9c-1.1,0-1.9-0.9-1.9-1.9l0,0c0-1.1,0.9-1.9,1.9-1.9h38.9c1.1,0,1.9,0.9,1.9,1.9l0,0
					C480.7,262.1,479.8,263,478.7,263z"/>
				<path class="st8" d="M461,270.6h-21.2c-1.1,0-1.9-0.9-1.9-1.9l0,0c0-1.1,0.9-1.9,1.9-1.9H461c1.1,0,1.9,0.9,1.9,1.9l0,0
					C462.9,269.8,462.1,270.6,461,270.6z"/>
				<path class="st8" d="M526.1,270.6h-57.3c-1.1,0-1.9-0.9-1.9-1.9l0,0c0-1.1,0.9-1.9,1.9-1.9h57.3c1.1,0,1.9,0.9,1.9,1.9l0,0
					C528,269.8,527.2,270.6,526.1,270.6z"/>
				<path class="st8" d="M472.6,278.3h-32.8c-1.1,0-1.9-0.9-1.9-1.9l0,0c0-1.1,0.9-1.9,1.9-1.9h32.8c1.1,0,1.9,0.9,1.9,1.9l0,0
					C474.5,277.4,473.7,278.3,472.6,278.3z"/>
				<path class="st8" d="M500.4,278.3h-20.6c-1.1,0-1.9-0.9-1.9-1.9l0,0c0-1.1,0.9-1.9,1.9-1.9h20.6c1.1,0,1.9,0.9,1.9,1.9l0,0
					C502.3,277.4,501.5,278.3,500.4,278.3z"/>
				<path class="st8" d="M526.1,278.3h-19c-1.1,0-1.9-0.9-1.9-1.9l0,0c0-1.1,0.9-1.9,1.9-1.9h19c1.1,0,1.9,0.9,1.9,1.9l0,0
					C528,277.4,527.2,278.3,526.1,278.3z"/>
				<path class="st8" d="M526.1,285.9h-86.2c-1.1,0-1.9-0.9-1.9-1.9l0,0c0-1.1,0.9-1.9,1.9-1.9h86.2c1.1,0,1.9,0.9,1.9,1.9l0,0
					C528,285.1,527.2,285.9,526.1,285.9z"/>
				<path class="st8" d="M487.3,293.6h-47.5c-1.1,0-1.9-0.9-1.9-1.9l0,0c0-1.1,0.9-1.9,1.9-1.9h47.5c1.1,0,1.9,0.9,1.9,1.9l0,0
					C489.2,292.7,488.4,293.6,487.3,293.6z"/>
				<path class="st8" d="M526.1,293.6H495c-1.1,0-1.9-0.9-1.9-1.9l0,0c0-1.1,0.9-1.9,1.9-1.9h31.1c1.1,0,1.9,0.9,1.9,1.9l0,0
					C528,292.7,527.2,293.6,526.1,293.6z"/>
				<path class="st8" d="M467.7,301.2h-27.9c-1.1,0-1.9-0.9-1.9-1.9l0,0c0-1.1,0.9-1.9,1.9-1.9h27.9c1.1,0,1.9,0.9,1.9,1.9l0,0
					C469.7,300.3,468.8,301.2,467.7,301.2z"/>
				<path class="st8" d="M503.2,301.2h-27.9c-1.1,0-1.9-0.9-1.9-1.9l0,0c0-1.1,0.9-1.9,1.9-1.9h27.9c1.1,0,1.9,0.9,1.9,1.9l0,0
					C505.1,300.3,504.2,301.2,503.2,301.2z"/>
				<path class="st8" d="M526.1,301.2h-16.2c-1.1,0-1.9-0.9-1.9-1.9l0,0c0-1.1,0.9-1.9,1.9-1.9h16.2c1.1,0,1.9,0.9,1.9,1.9l0,0
					C528,300.3,527.2,301.2,526.1,301.2z"/>
				<path class="st8" d="M478.7,308.8h-38.9c-1.1,0-1.9-0.9-1.9-1.9l0,0c0-1.1,0.9-1.9,1.9-1.9h38.9c1.1,0,1.9,0.9,1.9,1.9l0,0
					C480.7,308,479.8,308.8,478.7,308.8z"/>
				<path class="st8" d="M526.1,263h-38.9c-1.1,0-1.9-0.9-1.9-1.9l0,0c0-1.1,0.9-1.9,1.9-1.9h38.9c1.1,0,1.9,0.9,1.9,1.9l0,0
					C528,262.1,527.2,263,526.1,263z"/>
			</g>
			<g>
				<path class="st9" d="M536.3,246.3v2.7H368.4v-2.7c0-5,4-9,9-9h149.9C532.3,237.3,536.3,241.3,536.3,246.3z"/>
				<g>
					<path class="st1" d="M504.6,243.3c0,1.1-0.9,2.1-2.1,2.1s-2.1-0.9-2.1-2.1c0-1.1,0.9-2.1,2.1-2.1S504.6,242.2,504.6,243.3z"/>
					<path class="st1" d="M515.3,243.3c0,1.1-0.9,2.1-2.1,2.1s-2.1-0.9-2.1-2.1c0-1.1,0.9-2.1,2.1-2.1S515.3,242.2,515.3,243.3z"/>
					<path class="st1" d="M525.9,243.3c0,1.1-0.9,2.1-2.1,2.1s-2.1-0.9-2.1-2.1c0-1.1,0.9-2.1,2.1-2.1S525.9,242.2,525.9,243.3z"/>
				</g>
			</g>
		</g>
		<g>
			<path class="st10" d="M422.2,231.6h-36.8c-3.9,0-7.2-3.2-7.2-7.2v-36.8c0-3.9,3.2-7.2,7.2-7.2h36.8c3.9,0,7.2,3.2,7.2,7.2v36.8
				C429.3,228.4,426.1,231.6,422.2,231.6z"/>
			<g>
				<polyline class="st11" points="395.8,198.7 388.5,206.1 395.9,213.5 				"/>
				<polyline class="st11" points="411.7,198.7 419.1,206.1 411.7,213.5 				"/>
				<line class="st11" x1="407.2" y1="198.7" x2="400.3" y2="213.5"/>
			</g>
		</g>
		<g>
			<path class="st8" d="M536.3,55.9v103.9c0,5.6-4.6,10.2-10.2,10.2H378.6c-5.6,0-10.2-4.6-10.2-10.2V55.9c0-5.6,4.6-10.2,10.2-10.2
				h147.4C531.7,45.7,536.3,50.3,536.3,55.9z"/>
			<circle class="st12" cx="502.3" cy="78.6" r="24.3"/>
			<path class="st3" d="M467.1,170h-88.5c-5.6,0-10.2-4.6-10.2-10.2v-16.4l38.7-67.1c2-3.5,7.1-3.5,9.1,0l29.2,50.6l21.7,37.6
				C468.2,166.4,468.1,168.5,467.1,170z"/>
			<path class="st12" d="M505.2,170h-84.6l24.8-43l13.4-23.2c1.8-3.2,6.4-3.2,8.2,0L505.2,170z"/>
		</g>
	</g>
	<g>
		<g>
			<rect x="607.8" y="363" class="st13" width="65.2" height="98"/>
			
				<rect x="673" y="363" transform="matrix(-1 -1.224647e-16 1.224647e-16 -1 1370.9979 824.0921)" class="st14" width="25" height="98"/>
			<g>
				<rect x="676.6" y="366.8" class="st8" width="18.3" height="3.1"/>
				<rect x="676.6" y="373.5" class="st8" width="18.3" height="3.1"/>
				<rect x="676.6" y="380.2" class="st8" width="18.3" height="3.1"/>
				<rect x="676.6" y="387" class="st8" width="18.3" height="3.1"/>
				<rect x="676.6" y="393.7" class="st8" width="18.3" height="3.1"/>
				<rect x="676.6" y="400.4" class="st8" width="18.3" height="3.1"/>
				<rect x="676.6" y="407.1" class="st8" width="18.3" height="3.1"/>
				<rect x="676.6" y="413.8" class="st8" width="18.3" height="3.1"/>
				<rect x="676.6" y="420.6" class="st8" width="18.3" height="3.1"/>
				<rect x="676.6" y="427.3" class="st8" width="18.3" height="3.1"/>
				<rect x="676.6" y="434" class="st8" width="18.3" height="3.1"/>
				<rect x="676.6" y="440.7" class="st8" width="18.3" height="3.1"/>
				<rect x="676.6" y="447.4" class="st8" width="18.3" height="3.1"/>
				<rect x="676.6" y="454.2" class="st8" width="18.3" height="3.1"/>
			</g>
		</g>
		<g>
			<path class="st15" d="M597.2,461h33.1c0,0,1.9-5.9-2.2-13.2c0,0-2.7,2.1-10.7,0.7c0,0-3.3,2.8-5.6,3.9
				C609.6,453.6,596.3,456.2,597.2,461z"/>
			<path class="st16" d="M599.5,367.6c2.1,12.8,12,56,16.3,81.5c7.8,0.7,11.5-0.2,13.5-0.7c-0.4-8.9-1.2-30.2-1.1-39.5
				c0.1-15.8,0.9-36.6-6.1-48l-23.4,1.8c0.1,1.2,0.3,2.2,0.4,3C599.3,366.4,599.4,367,599.5,367.6z"/>
			<path class="st15" d="M537.3,461h33.1c0,0,1.9-5.9-2.2-13.2c0,0-2.7,2.1-10.7,0.7c0,0-3.3,2.8-5.6,3.9
				C549.6,453.6,536.4,456.2,537.3,461z"/>
			<path class="st17" d="M556.6,448.4c6.3,1.6,10.9,1.4,13.1,1.2c1.8-10.3,4.5-32.8,7.1-43.4c3.9-16.4,7.7-39.1,5-47.1l-23-5.8
				C558.8,353.9,556.9,423.2,556.6,448.4z"/>
			<path class="st17" d="M648.1,329.6L648.1,329.6c-0.5-4.5-1-7.9-1-7.9l-25.7,6.3l-21.8,5c-8.1,1.8-17.9,4-26.5,5.9
				c-9.7,2.2-16.1,9.5-14,19.2l2.4,11.7c13.5-0.2,77.1-6.3,82.5-9C650.2,357.8,652.1,346.8,648.1,329.6z"/>
			<path class="st16" d="M686.4,329.6L686.4,329.6c-0.5-4.5-2.7-9.4-2.7-9.4l-24,7.8l-21.8,5c-8.1,1.8-17.9,4-26.5,5.9
				c-9.7,2.2-16.1,9.5-14,19.2l2.4,11.7c13.5-0.2,70-2.2,82.5-9C688.4,357.6,690.4,346.8,686.4,329.6z"/>
			<g>
				<path class="st18" d="M614.5,292.8c0,0,11.4-5.2,14.5,0c1.7,2.8,0.5,8.1-3.4,10.3c-3.9,2.2-25.9,11.5-46.6,16.7
					c0,0-0.9-2.9-2.3-5.9c0,0,9.3-3.9,18.6-10.4C604.6,297.1,614.5,292.8,614.5,292.8L614.5,292.8z"/>
			</g>
			<path class="st18" d="M617.4,257.2l-9.8,39c0,0,1,9.9,11,5c10-4.8,16.6-35.9,16.6-35.9L617.4,257.2z"/>
			<path class="st3" d="M633.9,279.1c-1.2-0.3-2.4-0.6-3.5-0.9c-1.1-0.3-2.2-0.7-3.3-1c-9.3-3.2-14.3-7-14.3-7
				c2.9-12.7,6.4-21.2,9.6-26.8c0.1-0.1,0.2-0.3,0.2-0.4c0.1-0.1,0.2-0.3,0.3-0.4c1.7-2.8,4.1-5.1,6.8-7.1c0.3-0.2,0.5-0.4,0.8-0.6
				l1.2,20.4l0.2,2.1L633.9,279.1z"/>
			<path class="st19" d="M633.9,279.1c-1.2-0.3-2.4-0.6-3.5-0.9c-1.1-0.3-2.2-0.7-3.3-1c1.9-13.7,3.7-22.4,3.7-22.4l1,2.5
				L633.9,279.1z"/>
			<path class="st3" d="M691.6,243.8c-0.2,6-1.3,15.7-2.2,25.5c-0.3,3.1-0.6,6.2-0.8,9.2c-0.2,1.9-3,11.8-3.1,13.6
				c-0.5,8.5-4.7,14.9-0.7,27.8c0.9,3.1,1.2,4.7,1.2,6c0,0.9-1.2,1.8-1.6,2.1c-1.7,1-4.9,1.6-8.9,2.1h0c-7.8,0.9-18.3,1.1-24.6,1.1
				c-8.5,0-21.2-1.3-22.9-3.5c-1.5-2-0.1-4.8,0.6-8.7c3.1-17.8,2-27,1.8-39.8c0-0.3,0-0.6,0-1c-0.3-19.8-1.6-36.7-0.7-42.8
				c0.3-0.2,0.5-0.4,0.8-0.6c1.3-0.9,2.7-1.7,3.9-2.5c0.1-0.1,0.3-0.1,0.4-0.2c0.4-0.2,0.8-0.4,1.2-0.6c0.1-0.1,0.3-0.2,0.4-0.2
				c2.9-1.4,7.1-2.9,9.5-3.7c0.3-0.1,0.6-0.2,0.8-0.3c2.3-0.1,4.7-0.2,7.4-0.1c2.3,0.1,5.8,0.4,9.7,0.9c0,0,0,0,0,0
				c4.3,0.6,9.1,1.4,12.8,2.4c0,0,0,0,0.1,0c0.7,0.2,5.3,1.9,10.1,7.1C688.5,239.2,690.1,241.3,691.6,243.8z"/>
			<path class="st19" d="M684.8,319.9c0.9,3.1,1.2,4.7,1.2,6c0,0.9-1.2,1.8-1.6,2.1c-1.7,1-4.9,1.6-8.9,2.1c1.6-0.2,4.4-2.8,4.4-5.1
				c0-1.6-2.1-12.6-1.5-19.7c0.6-7.1,1.7-18.4-0.5-27.4c-2.2-9-4.3-20.9-4.3-20.9l12.4,7.5c0,0,1.6,2.2,3.4,4.9
				c-0.3,3.1-0.6,6.2-0.8,9.2C688.4,280.3,680.8,306.9,684.8,319.9z"/>
			<g>
				<path class="st16" d="M630.3,191.6c0,0,1.1,13,5.4,13.8c4.3,0.9,3.2-4.6,3.2-4.6l-0.6-6.2L630.3,191.6z"/>
				<path class="st18" d="M650.1,238.5c-8.4-1-5.3-9.2-4.1-11.1c0.3-0.1,1.8-0.5,1.9-0.6c0,0,0,0,0,0c0.3-0.2,0.5-0.6,0.7-1
					c0.8-2.2,0.4-6.5,0.4-6.7c0,0,0,0,0,0v-0.8c0.1-0.5,0.3-1,0.4-1.5l4.4-3.5l9.4-7.4c0,0-2.5,12.3-0.5,20.1
					c0.2,0.6,0.5,1.4,1.2,1.9c0,0,0,0,0,0c0.3,0.2,0.6,0.3,0.9,0.3C667.1,229.4,663.9,240.2,650.1,238.5z"/>
				<path class="st20" d="M657.5,213.9c0,0-0.1,8.2-9,12c0.8-2.1,0.4-6.4,0.4-6.7l3.7-2.9L657.5,213.9z"/>
				<path class="st18" d="M632.4,193.4c0,0,1.9,26.9,9.2,29.2c0,0,9.2,0.9,15.9-8.1c1.9-2.6,4.3-3.2,5.1-6.3c1.3-5,3.1-14.4,0.8-20
					C660.1,180.3,632.7,174,632.4,193.4z"/>
				<path class="st16" d="M663.5,183.9c-0.1-4.9-5.1-6.7-5.1-6.7c-4.9-2.3-15.1-1.3-25.7,1c-2.5,0.6-5.6-1-7.3,0.2
					c-2.1,1.4,0,8.1,0,8.1c4.1,12.3,19,8.3,23.5,6.8c1.1,3.2,0.9,7.6,3.6,9.9c1.5,1.3,4.2,1.3,6.8,0.9c0.3,0.6,1.6,1.2,1.8,2
					c0.8,2.9,0.7,7.4,0.7,10.9l1.3-0.6C663.3,215.4,676.4,184.3,663.5,183.9z"/>
				<g>
					<path class="st21" d="M639.8,202.5c0.4,2.2-0.7,4.3-2.5,4.6c-1.7,0.3-3.5-1.3-3.8-3.5c-0.4-2.2,0.7-4.3,2.5-4.6
						C637.7,198.7,639.4,200.2,639.8,202.5z"/>
					<path class="st21" d="M648.6,200.8c0.4,2.2-0.7,4.3-2.5,4.6c-1.7,0.3-3.5-1.3-3.8-3.5c-0.4-2.2,0.7-4.3,2.5-4.6
						C646.5,197,648.2,198.6,648.6,200.8z"/>
					<path class="st21" d="M639.8,202.5c0,0,0.4-0.6,2.4-0.4"/>
					<line class="st21" x1="648.6" y1="201.4" x2="656.1" y2="200.2"/>
				</g>
				<g>
					<path class="st18" d="M656.7,209.7c5.2,2,6.8-10.7,1.9-11.3c-3.7-0.4-3.9,4.8-3.9,4.8S653.7,208.6,656.7,209.7z"/>
				</g>
				<g class="st22">
					<g>
						<path class="st20" d="M658.4,200.3c-1.8,1.7-1.5,4.4-1.1,6.6C655.9,204.9,655.8,201.3,658.4,200.3L658.4,200.3z"/>
					</g>
					<g>
						<path class="st20" d="M659.2,202.7c-1.1,0.1-2,0.9-2.2,2c0,0-0.7-0.2-0.7-0.2C656.8,203.4,658,202.6,659.2,202.7L659.2,202.7z
							"/>
					</g>
				</g>
			</g>
			<path class="st18" d="M706.3,298C706.3,298,706.3,298,706.3,298c-2.3,2.6-10.9,4.6-15,0.9c-1.3-1.2-2.8-4.2-4.2-8
				c-3.7-9.7-7.1-24.2-7.1-24.2l19.3-9.8c0,0,2.5,11.1,4.6,21.7c0,0,0,0.1,0.1,0.3c0.7,3.4,1.3,6.7,1.9,9.6c0,0.1,0,0.1,0,0.2
				C706.3,292,706.6,295.6,706.3,298z"/>
			<path class="st3" d="M672.7,253.2c1.9,7.7,7.7,22.4,7.7,22.4c4.1,0.7,9.6-0.1,14.1-1.7c5.3-1.9,9-5.9,9-5.9s-3.9-10.9-7.4-18.7
				c-3.1-7-5-9.7-6.4-11c-2-2.1-5.3-4.6-7.7-5.7L672.7,253.2z"/>
			<path class="st3" d="M697,258.3l-11.3-4.9l-8.9-23c0,0,1.6,0.5,3.8,1.4c0,0,0,0,0,0c0,0,0.1,0.1,0.3,0.1c0.1,0,0.1,0,0.2,0.1
				c1.9,0.9,9.4,5.3,14.5,21.3c0,0.1,0.1,0.3,0.1,0.4c0.5,1.8,1,3.3,1.2,4.1c0,0.1,0,0.1,0.1,0.2C697,258,697,258.2,697,258.3z"/>
			<g>
				<path class="st18" d="M706.3,298C706.3,298,706.3,298,706.3,298c-0.2,1.4-0.6,2.4-1.3,2.8c-0.1,0.1-1.7,1-1.8,1.1
					c-2.4,1.4-6.6,3.9-11.9,6.2c-12.9,5.6-31.6,12-41.7,15c0,0-1-2.9-2.6-5.8c0,0,9.1-4.2,18.1-11.1c9-6.9,21.9-15.2,21.9-15.2
					l3.3-3.8c0,0,11.6-10.7,13.5-8.5c0,0,0,0.1,0.1,0.3c0.3,1.1,1.2,5.2,1.9,9.6c0,0.1,0,0.1,0,0.2C706.3,292,706.6,295.6,706.3,298
					z"/>
				<path class="st18" d="M648.4,316.6c0,0-2.3,1.4-4.6,0.9c-1.3-0.3-1.8-0.8-2.7-1c-0.9-0.2-3.5-0.5-4.7-1.1
					c-1.2-0.6-1.7-0.7-1.7,0.6c0,1.3,2.5,2.3,3.2,2.7c0.7,0.3,1.5,1.5,1.6,1.6c0.1,0.1-4.1,2.3-5.2,1.9c0,0-0.3,1-0.1,1.6
					c0.2,0.6,1.1,0.8,1.1,1c0.1,0.3-0.2,0.9,0,1.3c0.2,0.4,1,0.5,1.3,1.2c0.3,0.7,0,0.7,0.2,1.5c0.2,0.8,1.2,0.9,1.4,1.3
					c0.2,0.4,0.1,0.9,0.5,1.1c0.4,0.3,4.2-0.9,5.6-1.5c1.4-0.6,5.1-5.9,9.1-7.7L648.4,316.6z"/>
			</g>
			<path class="st23" d="M667.7,340.2h-29.3v-2.9h29.3c0.8,0,1.4,0.6,1.4,1.4l0,0C669.1,339.5,668.5,340.2,667.7,340.2z"/>
			<path class="st23" d="M651.8,340.2h-73.4c-0.9,0-1.6-0.6-1.9-1.4l-15-54.1c-0.3-1.2,0.6-2.4,1.8-2.4h71c1.7,0,3.1,1.1,3.5,2.7
				l15,53.9C653,339.5,652.5,340.2,651.8,340.2z"/>
			<path class="st24" d="M649.2,340.2h-73.4c-0.9,0-1.6-0.6-1.9-1.4l-15-54.1c-0.3-1.2,0.6-2.4,1.8-2.4h71c1.7,0,3.1,1.1,3.5,2.7
				l15,53.9C650.3,339.5,649.8,340.2,649.2,340.2z"/>
		</g>
	</g>
	<g>
		<path class="st25" d="M358.3,305.2l8.5-8.7c0,0,0.3-3.9,0.8-4.7c0.5-0.8,1.7-3.9,2.3-4.2c0.6-0.3,1.8,0,1.8,0s1.2-0.4,1.7-0.4
			c0.5,0,1.5,0.5,1.5,0.5s1.3-0.1,1.8-0.1c0.5,0,0.7,0.1,0.7,0.1s2-2.4,3-3.2c1-0.8,2.5-2.3,3-2.3c0.4,0,0.6,0.8,0.3,1.5
			c-0.3,0.8-1.7,2.1-1.7,2.1l-3.9,5.9c0,0,0.7-0.3,1-0.5c0.4-0.2,2.7-2.4,2.9-2.5c0.1-0.1,1.2-0.8,1.8-0.1c0.6,0.7-4.1,6.3-4.8,7.1
			c-0.8,0.8-5,2.9-5,2.9s-4.5,8.2-5,8.7C368.5,308,358.3,305.2,358.3,305.2z"/>
		<path class="st25" d="M366.3,265c0,0-4.7,27.5-9.2,28.1c0,0-17.8,0.7-21.8-20.9c-3.4-18.8,10.4-22.8,16.8-21.3
			C358.6,252.3,367.7,253.3,366.3,265z"/>
		<path class="st25" d="M350.5,288.8c0,0-2.5,3.4-3.4,11.5c0,0-7.4,1.1-14.3-2.5c0,0,3.7-11.5,4.1-24"/>
		<path class="st16" d="M345.5,246.3c-9.8,2.2-9,8.2-9,8.2c-4.6,1.1-5.5,3-5.5,11.4c0,8.4,3.1,18.5,4.8,19.4
			c1.7,0.8,11.2,0.9,12,0.6c0.8-0.3,4.1-8,3.4-9.4c-0.8-1.4,0-6.7,2.3-6.9c2.2-0.2,1.8,3.2,1.8,3.2l1.8-0.4l1.4-3.5
			c12.9,0.8,16.2-13.9,16.2-13.9C371.5,253.1,355.2,244.1,345.5,246.3z"/>
		<path class="st18" d="M237.2,432.5l9.9,1.4l-3.3,11.5l-10.7-2.7c0,0-4.3-5.9,2.2-10.2C235.7,432.3,236.7,432.4,237.2,432.5z"/>
		<path d="M310.8,402.9l-14.5-44c0,0-4.4-1.6-6.7,0c0,0-15.1,8.1-13.5,31.4c1.2,17.5,4.9,36.5,6.4,44.1l-38.8-1.4
			c0,0-4.8,5.7-1.7,13.1c0,0,48.7,13.1,55.6,14.3c5.6,1,11.7,1.7,14.6-0.8C317.5,455.1,310.8,402.9,310.8,402.9z"/>
		<path class="st18" d="M283.1,432.5l9.9,1.4l-3.3,11.5l-10.7-2.7c0,0-4.3-5.9,2.2-10.2C281.6,432.3,282.6,432.4,283.1,432.5z"/>
		<path class="st24" d="M279.6,438.5c-0.2,2.3,1.8,4.3,1.4,4.9c-0.4,0.6-7,11.7-7,11.7s5,2.2,4.2,5.3h-12.7c0,0-3.3-3-3.2-7.3
			c0,0,0.9-4.9,3.1-9.3c2.3-4.4,7.4-14.2,7.4-14.2s1.6-0.6,4.2,0.1c3.1,0.8,6.1,2.7,6.1,2.7S280.1,432.9,279.6,438.5z"/>
		<path class="st16" d="M381.1,450.3c-3.1-11.7-32.6-61.5-42.5-75c-20.5-8.9-42.3-16.4-42.3-16.4c-9,2.2-13.5,20.3-8.3,32.4
			c3.5,8.3,25.8,29.2,39.4,41.5l-37.8,0c0,0-4.5,6.7-0.4,13c0,0,62.9,14.3,68.4,15.1c5.5,0.8,17.9,0,17.9,0S383.7,460.1,381.1,450.3
			z"/>
		<path class="st24" d="M233.6,438.5c-0.2,2.3,1.8,4.3,1.4,4.9c-0.4,0.6-7,11.7-7,11.7s5,2.2,4.2,5.3h-12.7c0,0-3.3-3-3.2-7.3
			c0,0,0.9-4.9,3.1-9.3c2.3-4.4,7.4-14.2,7.4-14.2s1.6-0.6,4.2,0.1c3.1,0.8,6.1,2.7,6.1,2.7S234.2,432.9,233.6,438.5z"/>
		<path class="st25" d="M428.4,296.8l-20.3,35.7L393.6,318l-12,17.9l3.5,1.7l-1.3,1c0,0,28,13.7,31.4,10.6c3.4-3,19-48.4,19-48.4
			L428.4,296.8z"/>
		<path class="st24" d="M396.2,320.2c0,0-3.8,16.2-11.5,23.8l-19.6-7.5c0,0-9.1,15.3-18,27c-3.4,4.5-4.6,10.9-8.6,11.7
			c-0.2-0.1-0.5-0.2-0.7-0.2c-10.9-3.3-27,0.2-40.2-4.7c-14.6-5.5-11.8-8.5-11.8-8.5s8.9-16,13.9-33c2.2-7.5,3.8-14.4,4.8-19.9
			c1.9-9.6,9.6-17.1,19.3-18.4c0.1,0,0.2,0,0.3,0c11.1-1.4,40.2,2,45.8,4.4S396.2,320.2,396.2,320.2z"/>
		<path class="st26" d="M365.1,336.6c0,0-9.1,15.3-18,27c-3.4,4.5-4.6,10.9-8.6,11.7c1.8-0.6,4.7-9.9,5.7-12c1-2.1,2.7-4.2,6.3-11.4
			c3.6-7.3,8.4-18,8.4-18L365.1,336.6z"/>
		<g>
			<path d="M327.3,432.9c6.6-0.8,13.5,0.1,19.6,2.8C340.4,434.4,333.9,433.6,327.3,432.9L327.3,432.9z"/>
		</g>
		<path class="st25" d="M443.6,283.6c-0.3,0-2.4,1.6-3.4,2.5l1.2-2.2c0,0,1.5-1.5,2.1-2.3c0.6-0.8,0.3-1.6-0.2-1.7
			c-0.3,0-2.1,1.4-3.2,2.3l0.2-0.4c0,0,1.5-1.5,2.1-2.3c0.6-0.8,0.3-1.6-0.2-1.7c-0.4,0-4,2.9-4,2.9l-1.7,2.3l1.3-2.5
			c0,0,0.7-0.8,1.1-1.7c0.5-0.9,0.1-1.2-0.1-1.5c-0.3-0.3-2.6,1.5-3.2,2.2c-0.6,0.7-2.5,3.6-2.7,4l-2,4.1c-0.1-1.2-0.3-3.2-0.5-4.5
			c-0.2-1.9-1.9-2.3-1.9-1.4c-0.1,0.9-1,5.4-0.8,7.8c0.2,2.4,0.6,4,0.8,5.4s-1.3,4.1-1.3,4.1s5.6,3.5,6.6,2.5c0.9-1,2.9-3.4,3.9-4.9
			c1.3-2.2,2.2-5,2.2-5l1.8-3.8c0,0,1.5-1.5,2.1-2.3C444.3,284.5,444,283.7,443.6,283.6z"/>
	</g>
	<g>
		<path class="st27" d="M767.6,170h-66.2c-4.2,0-7.7,3.4-7.7,7.7v15.6c0,3.9,2.9,7.1,6.7,7.6c0.6,0.1,1,0.5,1,1.1v8.6
			c0,0.5,0.6,0.7,0.9,0.3l6.7-9.4c0.2-0.3,0.5-0.5,0.9-0.5h57.6c4.2,0,7.7-3.4,7.7-7.7v-15.6C775.3,173.5,771.8,170,767.6,170z"/>
		<g>
			<path class="st27" d="M711.6,185.5c0,1.4-1.1,2.5-2.5,2.5c-1.4,0-2.5-1.1-2.5-2.5c0-1.4,1.1-2.5,2.5-2.5
				C710.4,183,711.6,184.1,711.6,185.5z"/>
			<path class="st27" d="M724.3,185.5c0,1.4-1.1,2.5-2.5,2.5c-1.4,0-2.5-1.1-2.5-2.5c0-1.4,1.1-2.5,2.5-2.5
				C723.2,183,724.3,184.1,724.3,185.5z"/>
			<path class="st27" d="M737,185.5c0,1.4-1.1,2.5-2.5,2.5c-1.4,0-2.5-1.1-2.5-2.5c0-1.4,1.1-2.5,2.5-2.5
				C735.9,183,737,184.1,737,185.5z"/>
			<path class="st27" d="M749.8,185.5c0,1.4-1.1,2.5-2.5,2.5c-1.4,0-2.5-1.1-2.5-2.5c0-1.4,1.1-2.5,2.5-2.5
				C748.6,183,749.8,184.1,749.8,185.5z"/>
			<path class="st27" d="M762.5,185.5c0,1.4-1.1,2.5-2.5,2.5c-1.4,0-2.5-1.1-2.5-2.5c0-1.4,1.1-2.5,2.5-2.5
				C761.4,183,762.5,184.1,762.5,185.5z"/>
		</g>
	</g>
	<g>
		<path class="st27" d="M244.5,238.6h66.2c4.2,0,7.7,3.4,7.7,7.7v15.6c0,3.9-2.9,7.1-6.7,7.6c-0.6,0.1-1,0.5-1,1.1v8.6
			c0,0.5-0.6,0.7-0.9,0.3l-6.7-9.4c-0.2-0.3-0.5-0.5-0.9-0.5h-57.6c-4.2,0-7.7-3.4-7.7-7.7v-15.6C236.9,242,240.3,238.6,244.5,238.6
			z"/>
		<g>
			<path class="st27" d="M300.6,254.1c0,1.4,1.1,2.5,2.5,2.5c1.4,0,2.5-1.1,2.5-2.5c0-1.4-1.1-2.5-2.5-2.5
				C301.7,251.5,300.6,252.7,300.6,254.1z"/>
			<path class="st27" d="M287.8,254.1c0,1.4,1.1,2.5,2.5,2.5c1.4,0,2.5-1.1,2.5-2.5c0-1.4-1.1-2.5-2.5-2.5
				C289,251.5,287.8,252.7,287.8,254.1z"/>
			<path class="st27" d="M275.1,254.1c0,1.4,1.1,2.5,2.5,2.5c1.4,0,2.5-1.1,2.5-2.5c0-1.4-1.1-2.5-2.5-2.5
				C276.2,251.5,275.1,252.7,275.1,254.1z"/>
			<path class="st27" d="M262.4,254.1c0,1.4,1.1,2.5,2.5,2.5c1.4,0,2.5-1.1,2.5-2.5c0-1.4-1.1-2.5-2.5-2.5
				C263.5,251.5,262.4,252.7,262.4,254.1z"/>
			<path class="st27" d="M249.6,254.1c0,1.4,1.1,2.5,2.5,2.5c1.4,0,2.5-1.1,2.5-2.5c0-1.4-1.1-2.5-2.5-2.5
				C250.8,251.5,249.6,252.7,249.6,254.1z"/>
		</g>
	</g>
	<g>
		<path class="st28" d="M644.3,134H523.7c-6.7,0-12-5.4-12-12l0,0c0-6.7,5.4-12,12-12h120.6c6.7,0,12,5.4,12,12l0,0
			C656.4,128.6,651,134,644.3,134z"/>
		<g>
			<path class="st29" d="M642.5,121.1c0,3.5-2.9,6.4-6.4,6.4c-3.5,0-6.4-2.9-6.4-6.4s2.9-6.4,6.4-6.4
				C639.7,114.7,642.5,117.5,642.5,121.1z"/>
			<line class="st30" x1="640.7" y1="125.6" x2="644.2" y2="129.1"/>
		</g>
	</g>
	<g>
		<g>
			<path class="st31" d="M463.5,461.6h-34.2c-4.3,0-7.7-3.5-7.7-7.7v-34.2c0-4.3,3.5-7.7,7.7-7.7h34.2c4.3,0,7.7,3.5,7.7,7.7v34.2
				C471.2,458.2,467.7,461.6,463.5,461.6z"/>
			<path class="st14" d="M454.4,461.6h-34.2c-4.3,0-7.7-3.5-7.7-7.7v-34.2c0-4.3,3.5-7.7,7.7-7.7h34.2c4.3,0,7.7,3.5,7.7,7.7v34.2
				C462.1,458.2,458.7,461.6,454.4,461.6z"/>
			<path class="st3" d="M431.5,427.5l14.2,8.2c0.9,0.5,0.9,1.8,0,2.3l-14.2,8.2c-0.9,0.5-2-0.1-2-1.1v-16.4
				C429.5,427.6,430.6,427,431.5,427.5z"/>
		</g>
		<g>
			<path class="st31" d="M778,461.6h-44.7c-5.6,0-10.1-4.5-10.1-10.1v-44.7c0-5.6,4.5-10.1,10.1-10.1H778c5.6,0,10.1,4.5,10.1,10.1
				v44.7C788.1,457.1,783.6,461.6,778,461.6z"/>
			<path class="st14" d="M766.2,461.6h-44.7c-5.6,0-10.1-4.5-10.1-10.1v-44.7c0-5.6,4.5-10.1,10.1-10.1h44.7
				c5.6,0,10.1,4.5,10.1,10.1v44.7C776.3,457.1,771.8,461.6,766.2,461.6z"/>
			<path class="st3" d="M751.6,412.7c0,4.3-3.5,7.8-7.8,7.8c-4.3,0-7.8-3.5-7.8-7.8c0-4.3,3.5-7.8,7.8-7.8
				C748.2,404.9,751.6,408.4,751.6,412.7z"/>
			<path class="st3" d="M760.1,439.1v11.5c0,1-0.8,1.9-1.9,1.9h-28.7c-1,0-1.9-0.8-1.9-1.9v-11.5c0-9,7.3-16.2,16.2-16.2l0,0
				C752.8,422.8,760.1,430.1,760.1,439.1z"/>
		</g>
		<g>
			<path class="st12" d="M598.9,147.8h-25.5c-1.1,0-1.9-0.9-1.9-1.9l0,0c0-1.1,0.9-1.9,1.9-1.9h25.5c1.1,0,1.9,0.9,1.9,1.9l0,0
				C600.8,147,600,147.8,598.9,147.8z"/>
			<path class="st12" d="M624.4,147.8H606c-1.1,0-1.9-0.9-1.9-1.9l0,0c0-1.1,0.9-1.9,1.9-1.9h18.4c1.1,0,1.9,0.9,1.9,1.9l0,0
				C626.3,147,625.5,147.8,624.4,147.8z"/>
			<path class="st12" d="M584.3,156.3h-10.8c-1.1,0-1.9-0.9-1.9-1.9l0,0c0-1.1,0.9-1.9,1.9-1.9h10.8c1.1,0,1.9,0.9,1.9,1.9l0,0
				C586.2,155.4,585.3,156.3,584.3,156.3z"/>
			<path class="st12" d="M624.4,156.3h-33.7c-1.1,0-1.9-0.9-1.9-1.9l0,0c0-1.1,0.9-1.9,1.9-1.9h33.7c1.1,0,1.9,0.9,1.9,1.9l0,0
				C626.3,155.4,625.5,156.3,624.4,156.3z"/>
			<path class="st12" d="M607,164.7h-33.6c-1.1,0-1.9-0.9-1.9-1.9l0,0c0-1.1,0.9-1.9,1.9-1.9H607c1.1,0,1.9,0.9,1.9,1.9l0,0
				C608.9,163.8,608.1,164.7,607,164.7z"/>
			<path class="st12" d="M624.4,164.7h-10.8c-1.1,0-1.9-0.9-1.9-1.9l0,0c0-1.1,0.9-1.9,1.9-1.9h10.8c1.1,0,1.9,0.9,1.9,1.9l0,0
				C626.3,163.8,625.5,164.7,624.4,164.7z"/>
		</g>
		<g>
			<path class="st31" d="M277.2,343.4h-90.9c-2.1,0-3.8-1.7-3.8-3.8v-46.8c0-2.1,1.7-3.8,3.8-3.8h90.9c2.1,0,3.8,1.7,3.8,3.8v46.8
				C281,341.7,279.3,343.4,277.2,343.4z"/>
			<line class="st32" x1="186.7" y1="296.3" x2="276.8" y2="296.3"/>
			<circle class="st3" cx="274.4" cy="292.6" r="1.1"/>
			<circle class="st3" cx="268.7" cy="292.6" r="1.1"/>
			<circle class="st3" cx="263" cy="292.6" r="1.1"/>
			<g>
				<g>
					<path class="st33" d="M203.5,303.7h-15.3c-0.8,0-1.5-0.7-1.5-1.5l0,0c0-0.8,0.7-1.5,1.5-1.5h15.3c0.8,0,1.5,0.7,1.5,1.5l0,0
						C205,303,204.3,303.7,203.5,303.7z"/>
					<path class="st33" d="M203.5,310.6h-15.3c-0.8,0-1.5-0.7-1.5-1.5l0,0c0-0.8,0.7-1.5,1.5-1.5h15.3c0.8,0,1.5,0.7,1.5,1.5l0,0
						C205,310,204.3,310.6,203.5,310.6z"/>
					<path class="st33" d="M203.5,317.6h-15.3c-0.8,0-1.5-0.7-1.5-1.5l0,0c0-0.8,0.7-1.5,1.5-1.5h15.3c0.8,0,1.5,0.7,1.5,1.5l0,0
						C205,316.9,204.3,317.6,203.5,317.6z"/>
					<path class="st33" d="M203.5,324.6h-15.3c-0.8,0-1.5-0.7-1.5-1.5l0,0c0-0.8,0.7-1.5,1.5-1.5h15.3c0.8,0,1.5,0.7,1.5,1.5l0,0
						C205,323.9,204.3,324.6,203.5,324.6z"/>
					<path class="st33" d="M203.5,331.5h-15.3c-0.8,0-1.5-0.7-1.5-1.5l0,0c0-0.8,0.7-1.5,1.5-1.5h15.3c0.8,0,1.5,0.7,1.5,1.5l0,0
						C205,330.8,204.3,331.5,203.5,331.5z"/>
					<path class="st33" d="M203.5,338.5h-15.3c-0.8,0-1.5-0.7-1.5-1.5l0,0c0-0.8,0.7-1.5,1.5-1.5h15.3c0.8,0,1.5,0.7,1.5,1.5l0,0
						C205,337.8,204.3,338.5,203.5,338.5z"/>
				</g>
				<g>
					<path class="st34" d="M275.3,303.7h-65.9c-0.8,0-1.5-0.7-1.5-1.5l0,0c0-0.8,0.7-1.5,1.5-1.5h65.9c0.8,0,1.5,0.7,1.5,1.5l0,0
						C276.8,303,276.1,303.7,275.3,303.7z"/>
					<path class="st34" d="M275.3,310.6h-65.9c-0.8,0-1.5-0.7-1.5-1.5l0,0c0-0.8,0.7-1.5,1.5-1.5h65.9c0.8,0,1.5,0.7,1.5,1.5l0,0
						C276.8,310,276.1,310.6,275.3,310.6z"/>
					<path class="st34" d="M275.3,317.6h-65.9c-0.8,0-1.5-0.7-1.5-1.5l0,0c0-0.8,0.7-1.5,1.5-1.5h65.9c0.8,0,1.5,0.7,1.5,1.5l0,0
						C276.8,316.9,276.1,317.6,275.3,317.6z"/>
					<path class="st34" d="M275.3,324.6h-65.9c-0.8,0-1.5-0.7-1.5-1.5l0,0c0-0.8,0.7-1.5,1.5-1.5h65.9c0.8,0,1.5,0.7,1.5,1.5l0,0
						C276.8,323.9,276.1,324.6,275.3,324.6z"/>
					<path class="st34" d="M275.3,331.5h-65.9c-0.8,0-1.5-0.7-1.5-1.5l0,0c0-0.8,0.7-1.5,1.5-1.5h65.9c0.8,0,1.5,0.7,1.5,1.5l0,0
						C276.8,330.8,276.1,331.5,275.3,331.5z"/>
					<path class="st34" d="M275.3,338.5h-65.9c-0.8,0-1.5-0.7-1.5-1.5l0,0c0-0.8,0.7-1.5,1.5-1.5h65.9c0.8,0,1.5,0.7,1.5,1.5l0,0
						C276.8,337.8,276.1,338.5,275.3,338.5z"/>
				</g>
			</g>
		</g>
		<g>
			<path class="st31" d="M219.2,253.6h-49.3c-5.3,0-9.6-4.3-9.6-9.6v-49.3c0-5.3,4.3-9.6,9.6-9.6h49.3c5.3,0,9.6,4.3,9.6,9.6V244
				C228.7,249.3,224.5,253.6,219.2,253.6z"/>
			<path class="st35" d="M215.8,247.7h-53.1c-4.2,0-7.7-3.4-7.7-7.7V187c0-4.2,3.4-7.7,7.7-7.7h53.1c4.2,0,7.7,3.4,7.7,7.7V240
				C223.4,244.3,220,247.7,215.8,247.7z"/>
			<g>
				<g>
					<path class="st1" d="M201.1,205.7h-0.4v-3.9c0-6.4-5.2-11.7-11.7-11.7c-6.4,0-11.7,5.2-11.7,11.7v3.9h-0.1
						c-1.8,0-3.3,1.5-3.3,3.3v14.8c0,1.8,1.5,3.3,3.3,3.3h23.8c1.8,0,3.3-1.5,3.3-3.3v-14.8C204.4,207.1,202.9,205.7,201.1,205.7z
						 M180.4,201.7c0-4.8,3.9-8.7,8.7-8.7c4.8,0,8.7,3.9,8.7,8.7v3.9h-17.4V201.7z"/>
					<path class="st7" d="M193,213.2c0-2.4-2.1-4.2-4.6-3.7c-1.4,0.3-2.6,1.5-2.9,2.9c-0.4,1.7,0.5,3.3,1.8,4.1
						c0.3,0.2,0.4,0.5,0.3,0.8l-0.7,2.4c-0.4,1.5,0.7,2.9,2.2,2.9c1.5,0,2.6-1.4,2.2-2.9l-0.7-2.4c-0.1-0.3,0.1-0.6,0.4-0.8
						C192.3,215.9,193,214.7,193,213.2z"/>
				</g>
				<path class="st1" d="M203,232.1h-27.5c-0.8,0-1.4-0.6-1.4-1.4l0,0c0-0.8,0.6-1.4,1.4-1.4H203c0.8,0,1.4,0.6,1.4,1.4l0,0
					C204.4,231.5,203.7,232.1,203,232.1z"/>
				<path class="st1" d="M203,236.9h-27.5c-0.8,0-1.4-0.6-1.4-1.4l0,0c0-0.8,0.6-1.4,1.4-1.4H203c0.8,0,1.4,0.6,1.4,1.4l0,0
					C204.4,236.3,203.7,236.9,203,236.9z"/>
			</g>
		</g>
		<g>
			<g>
				<path class="st31" d="M757,334h-29c-3.1,0-5.6-2.5-5.6-5.6v-29c0-3.1,2.5-5.6,5.6-5.6h29c3.1,0,5.6,2.5,5.6,5.6v29
					C762.6,331.5,760.1,334,757,334z"/>
				<path class="st35" d="M755,330.5h-31.2c-2.5,0-4.5-2-4.5-4.5v-31.2c0-2.5,2-4.5,4.5-4.5H755c2.5,0,4.5,2,4.5,4.5V326
					C759.5,328.5,757.5,330.5,755,330.5z"/>
			</g>
			<g>
				<g>
					<path class="st3" d="M731.2,322.4c-0.1,0-0.2,0-0.3,0c-0.7-0.2-1-0.9-0.9-1.5l6.1-21.6c0.2-0.7,0.9-1.1,1.5-0.9
						c0.7,0.2,1,0.9,0.9,1.5l-6.1,21.6C732.3,322.1,731.8,322.4,731.2,322.4z"/>
				</g>
				<g>
					<path class="st3" d="M741.4,322.4c-0.1,0-0.2,0-0.3,0c-0.7-0.2-1-0.9-0.9-1.5l6.1-21.6c0.2-0.7,0.9-1.1,1.5-0.9
						c0.7,0.2,1,0.9,0.9,1.5l-6.1,21.6C742.5,322.1,742,322.4,741.4,322.4z"/>
				</g>
				<g>
					<path class="st3" d="M750.2,306.8h-21.6c-0.7,0-1.2-0.6-1.2-1.2c0-0.7,0.6-1.2,1.2-1.2h21.6c0.7,0,1.2,0.6,1.2,1.2
						C751.4,306.2,750.8,306.8,750.2,306.8z"/>
				</g>
				<g>
					<path class="st3" d="M750.2,316.6h-21.6c-0.7,0-1.2-0.6-1.2-1.2c0-0.7,0.6-1.2,1.2-1.2h21.6c0.7,0,1.2,0.6,1.2,1.2
						C751.4,316,750.8,316.6,750.2,316.6z"/>
				</g>
			</g>
		</g>
		<g>
			<path class="st12" d="M269.5,206.1h-15.6c-0.9,0-1.7-0.8-1.7-1.7l0,0c0-0.9,0.8-1.7,1.7-1.7h15.6c0.9,0,1.7,0.8,1.7,1.7l0,0
				C271.2,205.3,270.4,206.1,269.5,206.1z"/>
			<path class="st12" d="M285.2,213.7h-31.3c-0.9,0-1.7-0.8-1.7-1.7l0,0c0-0.9,0.8-1.7,1.7-1.7h31.3c0.9,0,1.7,0.8,1.7,1.7l0,0
				C286.9,212.9,286.1,213.7,285.2,213.7z"/>
			<path class="st12" d="M257.6,221.3h-3.7c-0.9,0-1.7-0.8-1.7-1.7l0,0c0-0.9,0.8-1.7,1.7-1.7h3.7c0.9,0,1.7,0.8,1.7,1.7l0,0
				C259.3,220.5,258.5,221.3,257.6,221.3z"/>
			<path class="st12" d="M285.2,221.3h-21.8c-0.9,0-1.7-0.8-1.7-1.7l0,0c0-0.9,0.8-1.7,1.7-1.7h21.8c0.9,0,1.7,0.8,1.7,1.7l0,0
				C286.9,220.5,286.1,221.3,285.2,221.3z"/>
			<path class="st12" d="M285.2,206.1h-9.5c-0.9,0-1.7-0.8-1.7-1.7l0,0c0-0.9,0.8-1.7,1.7-1.7h9.5c0.9,0,1.7,0.8,1.7,1.7l0,0
				C286.9,205.3,286.1,206.1,285.2,206.1z"/>
		</g>
		<path class="st3" d="M197.2,439.3c-2,0-3.9,0.6-5.6,1.5c-0.7-5.8-5.6-10.3-11.6-10.3c-6.4,0-11.7,5.2-11.7,11.7
			c0,0.4,0,0.9,0.1,1.3c-0.5-0.1-1.1-0.2-1.6-0.2c-4.9,0-8.9,4-8.9,8.9c0,4.9,4,8.9,8.9,8.9h30.4c6,0,10.9-4.9,10.9-10.9
			C208.1,444.2,203.3,439.3,197.2,439.3z"/>
	</g>
	<g>
		<path class="st1" d="M120,392.5c-0.3-1.6-0.3-3.3,0.2-4.9c1.4-5.4,2.9-15.5-0.5-26.4c-5.8-18.2-29.4-34.3-29.4-34.3
			s6.4,26.8,11.7,38.3c3.9,8.4,10.6,17.9,14.4,22.9c1,1.4,1.8,3,2.1,4.7c3.8,21.1,3.3,37.5,3.3,37.7l1.8,0.1
			C123.3,430.4,123.8,413.9,120,392.5z"/>
		<path class="st36" d="M138.8,375.4c4.7-14.8,6.9-32.3,6.9-32.3s-21.2,17.5-22.9,31c-1.1,8.3,0.3,14.9,1.4,18.8
			c0.5,1.7,0.7,3.4,0.5,5.1c-2.1,19.9-0.5,35.1-0.4,35.4l1.6-0.2c0-0.2-1.6-14.4,0.3-33.2c0.3-2.6,1.3-5,2.9-7
			C132.1,389.3,136.4,383,138.8,375.4z"/>
		<path class="st1" d="M160.3,342.4c0,0-22.8,8.5-28.8,27.1c-3.6,11.3-1.9,21.8-0.5,27.2c0.4,1.5,0.4,3.1,0,4.6
			c-5.3,21.4-5.4,43.6-5.4,43.9h1.8c0-0.3,0.1-22,5.2-43c0.5-2.1,1.4-4.1,2.7-5.8c3.9-5.2,10.5-14.7,14.3-23
			C155.1,361.9,160.3,342.4,160.3,342.4z"/>
		<path class="st36" d="M120.1,421c-0.6-7.8-2.7-14.8-5.3-20.7c-0.5-1.2-0.7-2.5-0.5-3.7c0.3-2.5,0.5-6.3-0.5-11.1
			c-1.9-9.1-14-28.9-31.6-30c0,0,6.1,9.7,9.2,17.9c3.9,10.3,9.6,21.1,18.9,25.2c1.6,0.7,2.9,2.1,3.6,3.8c2.3,5.5,4.1,11.8,4.6,18.9
			L120.1,421z"/>
		<g>
			<g>
				<path class="st1" d="M108.2,461h29l7.5-46c0.3-2-1.2-3.9-3.3-3.9H104c-2.1,0-3.6,1.8-3.3,3.9L108.2,461z"/>
			</g>
		</g>
	</g>
</g>
</svg>
